<mxfile host="app.diagrams.net" modified="2024-01-18T14:50:00.243Z" agent="Mozilla/5.0 (Windows NT 10.0; Win64; x64) AppleWebKit/537.36 (KHTML, like Gecko) Chrome/120.0.0.0 Safari/537.36 OPR/106.0.0.0" etag="zxxjv6rWCtXBLyPZOIEb" version="22.1.18" type="github">
  <diagram name="Página-1" id="pN39wXMBFtuyC5WhX6lR">
    <mxGraphModel dx="882" dy="473" grid="1" gridSize="10" guides="1" tooltips="1" connect="1" arrows="1" fold="1" page="1" pageScale="1" pageWidth="827" pageHeight="1169" math="0" shadow="0">
      <root>
        <mxCell id="0" />
        <mxCell id="1" parent="0" />
        <mxCell id="wujke9OWW01raQN76-9f-1" value="Visitante" style="shape=umlActor;verticalLabelPosition=bottom;verticalAlign=top;html=1;outlineConnect=0;" parent="1" vertex="1">
          <mxGeometry x="120" y="160" width="30" height="60" as="geometry" />
        </mxCell>
        <mxCell id="wujke9OWW01raQN76-9f-5" value="" style="swimlane;startSize=0;" parent="1" vertex="1">
          <mxGeometry x="240" y="50" width="300" height="400" as="geometry" />
        </mxCell>
        <mxCell id="wujke9OWW01raQN76-9f-3" value="pplware Website&amp;nbsp;" style="text;html=1;align=center;verticalAlign=middle;resizable=0;points=[];autosize=1;strokeColor=none;fillColor=none;" parent="wujke9OWW01raQN76-9f-5" vertex="1">
          <mxGeometry x="84" width="120" height="30" as="geometry" />
        </mxCell>
        <mxCell id="wujke9OWW01raQN76-9f-2" value="Noticia" style="ellipse;whiteSpace=wrap;html=1;" parent="wujke9OWW01raQN76-9f-5" vertex="1">
          <mxGeometry x="54" y="140" width="120" height="40" as="geometry" />
        </mxCell>
        <mxCell id="wujke9OWW01raQN76-9f-20" value="Pesquisar" style="ellipse;whiteSpace=wrap;html=1;" parent="wujke9OWW01raQN76-9f-5" vertex="1">
          <mxGeometry x="16" y="30" width="120" height="40" as="geometry" />
        </mxCell>
        <mxCell id="PxkZ7bjZGEVZncgXgRI6-1" value="Subscrever&amp;nbsp;&lt;br&gt;Newsletter&amp;nbsp;" style="ellipse;whiteSpace=wrap;html=1;" vertex="1" parent="wujke9OWW01raQN76-9f-5">
          <mxGeometry x="70" y="320" width="120" height="40" as="geometry" />
        </mxCell>
        <mxCell id="PxkZ7bjZGEVZncgXgRI6-2" value="Comentar" style="ellipse;whiteSpace=wrap;html=1;" vertex="1" parent="wujke9OWW01raQN76-9f-5">
          <mxGeometry x="54" y="220" width="120" height="40" as="geometry" />
        </mxCell>
        <mxCell id="PxkZ7bjZGEVZncgXgRI6-7" value="" style="endArrow=none;dashed=1;html=1;rounded=0;" edge="1" parent="wujke9OWW01raQN76-9f-5" source="wujke9OWW01raQN76-9f-2" target="wujke9OWW01raQN76-9f-20">
          <mxGeometry width="50" height="50" relative="1" as="geometry">
            <mxPoint x="116" y="102" as="sourcePoint" />
            <mxPoint x="150" y="70" as="targetPoint" />
          </mxGeometry>
        </mxCell>
        <mxCell id="PxkZ7bjZGEVZncgXgRI6-8" value="return" style="edgeLabel;html=1;align=center;verticalAlign=middle;resizable=0;points=[];" vertex="1" connectable="0" parent="PxkZ7bjZGEVZncgXgRI6-7">
          <mxGeometry x="-0.0212" relative="1" as="geometry">
            <mxPoint as="offset" />
          </mxGeometry>
        </mxCell>
        <mxCell id="PxkZ7bjZGEVZncgXgRI6-10" value="Feed Noticias" style="ellipse;whiteSpace=wrap;html=1;" vertex="1" parent="wujke9OWW01raQN76-9f-5">
          <mxGeometry x="166" y="30" width="120" height="40" as="geometry" />
        </mxCell>
        <mxCell id="PxkZ7bjZGEVZncgXgRI6-11" value="" style="endArrow=none;dashed=1;html=1;rounded=0;entryX=0.5;entryY=1;entryDx=0;entryDy=0;" edge="1" parent="wujke9OWW01raQN76-9f-5" source="wujke9OWW01raQN76-9f-2" target="PxkZ7bjZGEVZncgXgRI6-10">
          <mxGeometry width="50" height="50" relative="1" as="geometry">
            <mxPoint x="142" y="150" as="sourcePoint" />
            <mxPoint x="98" y="80" as="targetPoint" />
          </mxGeometry>
        </mxCell>
        <mxCell id="PxkZ7bjZGEVZncgXgRI6-12" value="return" style="edgeLabel;html=1;align=center;verticalAlign=middle;resizable=0;points=[];" vertex="1" connectable="0" parent="PxkZ7bjZGEVZncgXgRI6-11">
          <mxGeometry x="-0.0212" relative="1" as="geometry">
            <mxPoint as="offset" />
          </mxGeometry>
        </mxCell>
        <mxCell id="PxkZ7bjZGEVZncgXgRI6-5" value="" style="endArrow=none;dashed=1;html=1;rounded=0;" edge="1" parent="wujke9OWW01raQN76-9f-5" source="wujke9OWW01raQN76-9f-2" target="PxkZ7bjZGEVZncgXgRI6-2">
          <mxGeometry width="50" height="50" relative="1" as="geometry">
            <mxPoint x="-133.9997489539746" y="200" as="sourcePoint" />
            <mxPoint x="-105.25999999999996" y="378.08000000000004" as="targetPoint" />
          </mxGeometry>
        </mxCell>
        <mxCell id="PxkZ7bjZGEVZncgXgRI6-15" value="include" style="edgeLabel;html=1;align=center;verticalAlign=middle;resizable=0;points=[];" vertex="1" connectable="0" parent="PxkZ7bjZGEVZncgXgRI6-5">
          <mxGeometry x="-0.1293" y="2" relative="1" as="geometry">
            <mxPoint as="offset" />
          </mxGeometry>
        </mxCell>
        <mxCell id="wujke9OWW01raQN76-9f-9" value="Website Admin" style="shape=umlActor;verticalLabelPosition=bottom;verticalAlign=top;html=1;outlineConnect=0;" parent="1" vertex="1">
          <mxGeometry x="650" y="190" width="30" height="60" as="geometry" />
        </mxCell>
        <mxCell id="wujke9OWW01raQN76-9f-10" value="" style="endArrow=none;html=1;rounded=0;exitX=1;exitY=0.5;exitDx=0;exitDy=0;" parent="1" source="wujke9OWW01raQN76-9f-2" target="wujke9OWW01raQN76-9f-9" edge="1">
          <mxGeometry width="50" height="50" relative="1" as="geometry">
            <mxPoint x="430" y="250" as="sourcePoint" />
            <mxPoint x="590" y="140" as="targetPoint" />
          </mxGeometry>
        </mxCell>
        <mxCell id="PxkZ7bjZGEVZncgXgRI6-17" value="Gestão" style="edgeLabel;html=1;align=center;verticalAlign=middle;resizable=0;points=[];" vertex="1" connectable="0" parent="wujke9OWW01raQN76-9f-10">
          <mxGeometry x="0.113" relative="1" as="geometry">
            <mxPoint as="offset" />
          </mxGeometry>
        </mxCell>
        <mxCell id="wujke9OWW01raQN76-9f-13" value="" style="endArrow=none;html=1;rounded=0;" parent="1" source="wujke9OWW01raQN76-9f-1" target="PxkZ7bjZGEVZncgXgRI6-2" edge="1">
          <mxGeometry width="50" height="50" relative="1" as="geometry">
            <mxPoint x="430" y="250" as="sourcePoint" />
            <mxPoint x="351.72" y="335.79999999999995" as="targetPoint" />
          </mxGeometry>
        </mxCell>
        <mxCell id="wujke9OWW01raQN76-9f-28" value="" style="endArrow=none;html=1;rounded=0;" parent="1" source="wujke9OWW01raQN76-9f-20" target="wujke9OWW01raQN76-9f-1" edge="1">
          <mxGeometry width="50" height="50" relative="1" as="geometry">
            <mxPoint x="260" y="169" as="sourcePoint" />
            <mxPoint x="379" y="244" as="targetPoint" />
          </mxGeometry>
        </mxCell>
        <mxCell id="PxkZ7bjZGEVZncgXgRI6-14" value="" style="endArrow=none;html=1;rounded=0;exitX=0.241;exitY=0.888;exitDx=0;exitDy=0;exitPerimeter=0;" edge="1" parent="1" source="PxkZ7bjZGEVZncgXgRI6-10" target="wujke9OWW01raQN76-9f-1">
          <mxGeometry width="50" height="50" relative="1" as="geometry">
            <mxPoint x="310" y="145" as="sourcePoint" />
            <mxPoint x="260" y="164" as="targetPoint" />
          </mxGeometry>
        </mxCell>
        <mxCell id="PxkZ7bjZGEVZncgXgRI6-16" value="" style="endArrow=none;html=1;rounded=0;" edge="1" parent="1" source="wujke9OWW01raQN76-9f-1" target="PxkZ7bjZGEVZncgXgRI6-1">
          <mxGeometry width="50" height="50" relative="1" as="geometry">
            <mxPoint x="160" y="208" as="sourcePoint" />
            <mxPoint x="309" y="293" as="targetPoint" />
          </mxGeometry>
        </mxCell>
        <mxCell id="PxkZ7bjZGEVZncgXgRI6-18" value="" style="endArrow=none;html=1;rounded=0;" edge="1" parent="1" source="PxkZ7bjZGEVZncgXgRI6-2" target="wujke9OWW01raQN76-9f-9">
          <mxGeometry width="50" height="50" relative="1" as="geometry">
            <mxPoint x="386" y="220" as="sourcePoint" />
            <mxPoint x="620" y="192" as="targetPoint" />
          </mxGeometry>
        </mxCell>
        <mxCell id="PxkZ7bjZGEVZncgXgRI6-19" value="Gestão" style="edgeLabel;html=1;align=center;verticalAlign=middle;resizable=0;points=[];" vertex="1" connectable="0" parent="PxkZ7bjZGEVZncgXgRI6-18">
          <mxGeometry x="0.113" relative="1" as="geometry">
            <mxPoint as="offset" />
          </mxGeometry>
        </mxCell>
        <mxCell id="PxkZ7bjZGEVZncgXgRI6-20" value="" style="endArrow=none;html=1;rounded=0;" edge="1" parent="1" source="PxkZ7bjZGEVZncgXgRI6-1" target="wujke9OWW01raQN76-9f-9">
          <mxGeometry width="50" height="50" relative="1" as="geometry">
            <mxPoint x="378" y="305" as="sourcePoint" />
            <mxPoint x="630" y="202" as="targetPoint" />
          </mxGeometry>
        </mxCell>
        <mxCell id="PxkZ7bjZGEVZncgXgRI6-21" value="Gestão" style="edgeLabel;html=1;align=center;verticalAlign=middle;resizable=0;points=[];" vertex="1" connectable="0" parent="PxkZ7bjZGEVZncgXgRI6-20">
          <mxGeometry x="0.113" relative="1" as="geometry">
            <mxPoint as="offset" />
          </mxGeometry>
        </mxCell>
      </root>
    </mxGraphModel>
  </diagram>
</mxfile>
